<svg xmlns="http://www.w3.org/2000/svg" version="1.1" xmlns:xlink="http://www.w3.org/1999/xlink" xmlns:svgjs="http://svgjs.com/svgjs" width="1440" height="860" preserveAspectRatio="none" viewBox="0 0 1440 860"><g mask="url(&quot;#SvgjsMask1020&quot;)" fill="none"><rect width="1440" height="860" x="0" y="0" fill="rgba(12, 15, 18, 1)"></rect><path d="M 0,516 C 72,468.8 216,269.4 360,280 C 504,290.6 576,591.4 720,569 C 864,546.6 936,175.2 1080,168 C 1224,160.8 1368,460 1440,533L1440 860L0 860z" fill="rgba(16, 20, 24, 1)"></path><path d="M 0,143 C 72,234.4 216,553.4 360,600 C 504,646.6 576,367.4 720,376 C 864,384.6 936,691.2 1080,643 C 1224,594.8 1368,236.6 1440,135L1440 860L0 860z" fill="rgba(10, 13, 18, 1)"></path></g><defs><mask id="SvgjsMask1020"><rect width="1440" height="860" fill="#ffffff"></rect></mask></defs></svg>